<?xml version="1.0" encoding="UTF-8"?>
<svg id="Layer_1" xmlns="http://www.w3.org/2000/svg" xmlns:xlink="http://www.w3.org/1999/xlink" version="1.1" viewBox="0 0 406.4 309.1">
  <!-- Generator: Adobe Illustrator 29.0.0, SVG Export Plug-In . SVG Version: 2.1.0 Build 186)  -->
  <defs>
    <style>
      .st0, .st1, .st2, .st3, .st4, .st5 {
        fill: none;
      }

      .st1 {
        stroke: #1d1d1b;
      }

      .st1, .st4 {
        stroke-linecap: square;
        stroke-linejoin: round;
      }

      .st2 {
        stroke-dasharray: 6 6;
      }

      .st2, .st3, .st5 {
        stroke: #000;
        stroke-miterlimit: 10;
      }

      .st3 {
        opacity: 0;
      }

      .st6 {
        fill: #1d1d1b;
      }

      .st4 {
        stroke: #312783;
      }

      .st7 {
        clip-path: url(#clippath-1);
      }

      .st8 {
        clip-path: url(#clippath-3);
      }

      .st9 {
        clip-path: url(#clippath-2);
      }

      .st10 {
        clip-path: url(#clippath);
      }
    </style>
    <clipPath id="clippath">
      <rect class="st0" x="8.1" y="9.7" width="21" height="22"/>
    </clipPath>
    <clipPath id="clippath-1">
      <rect class="st0" x="390.5" y="248.9" width="8" height="16"/>
    </clipPath>
    <clipPath id="clippath-2">
      <rect class="st0" x="93.3" y="21.2" width="59" height="21"/>
    </clipPath>
    <clipPath id="clippath-3">
      <rect class="st0" x="241.6" y="266.1" width="87" height="21"/>
    </clipPath>
  </defs>
  <polyline class="st4" points="37.3 244.8 38 243 38.6 243.8 39.3 236.8 39.9 235.2 40.6 240.1 41.2 235.9 41.9 222.1 42.5 211.9 43.2 218.6 43.8 231 44.5 236.9 45.1 235.9 45.8 259.2 46.4 260.9 47.1 273.1 47.7 280.1 48.4 285.1 49 287.8 49.7 283.1 50.3 272 51 272.8 51.6 258.3 52.3 264.6 53 260.5 53.6 250.8 54.3 249.3 54.9 256.4 55.6 265.3 56.2 269.4 56.9 266.7 57.5 276.5 58.2 278.1 58.8 279.2 59.5 273.2 60.1 270.5 60.8 266.3 61.4 272.5 62.1 273.3 62.7 264.8 63.4 249 64 261.4 65.3 231.2 66 222.7 66.6 219.5 67.3 222.2 67.9 206.7 69.2 167.3 69.9 153.4 70.5 149.2 71.2 161 71.8 160.6 72.5 153.4 73.1 166 74.4 156.6 75.1 148.9 75.7 160.5 76.4 166.8 77 170.7 77.7 182.1 78.3 163.9 79 168.4 79.6 164.6 80.3 166.7 81.6 136 82.2 129 82.9 151 83.5 150 84.2 142.5 84.8 131.7 85.5 137.5 86.1 118.4 86.8 131.4 87.4 137.6 88.1 127.6 88.7 126.6 89.4 105.6 90 103.2 90.7 109.1 91.3 112.5 92 123.1 92.6 135.6 93.9 122.2 94.6 108.5 95.2 115.7 95.9 97.9 96.5 100.4 97.2 83.8 97.8 87.7 98.5 94.7 99.1 91.6 99.8 80.6 100.4 78.4 101.1 83.9 102.4 110.9 103 105.2 103.7 94.6 104.3 95.8 105 106.2 105.6 96.8 106.3 109.4 107 116.2 107.6 109.3 108.3 131.8 108.9 127.3 109.6 132.7 110.2 131.1 110.9 131.4 111.5 128.8 112.2 121.2 112.8 128.4 113.5 113.4 114.8 96.4 115.4 84 116.7 66.3 117.4 65 118 79 118.7 79.9 119.3 87.3 120 101.3 120.6 98.1 121.3 103.4 122.6 123.6 123.2 120.3 123.9 116.2 124.5 102.1 125.2 101.8 125.8 90.6 126.5 75.8 127.1 63.5 127.8 87.2 128.4 74.1 129.1 70.1 130.4 61 131.7 52.8 132.3 56 133 74.9 133.6 75.5 134.3 83.2 134.9 71.6 135.6 74.1 136.2 72.7 136.9 80.9 137.5 85.6 138.2 85.2 138.8 99.8 139.5 96.3 140.1 96.8 140.8 108.4 141.4 132.4 142.1 126.7 142.7 129.2 143.4 134.1 144 136 144.7 116.9 145.3 116.9 146 115.5 146.6 130.2 147.3 112.9 148.6 91.6 149.2 90.6 149.9 80.7 150.5 76.4 151.2 69.6 151.8 70.7 152.5 85.2 153.1 74.2 153.8 93.5 154.4 95.4 155.1 97 155.7 107.1 156.4 100.3 157 101.9 157.7 105.8 158.3 100 159 104.4 159.7 89.7 160.3 85.6 161 89.9 161.6 109.3 162.3 122.1 162.9 110.5 163.6 110.5 164.2 112.9 164.9 95.6 165.5 108.2 166.2 113.6 166.8 118 167.5 111.5 168.8 123.5 169.4 139.4 170.7 122.7 171.4 127 172 124.8 172.7 137.5 173.3 141.8 174 127.3 174.6 125.4 175.3 101.2 175.9 108.8 176.6 102.3 177.2 103.8 177.9 97.5 178.5 97.1 179.2 102.3 179.8 110.7 180.5 78.8 181.1 79.1 181.8 99.2 182.4 105.3 183.1 97.9 183.7 102.5 184.4 88.1 185 77.3 185.7 78.4 186.3 82.7 187 92.4 187.6 99.1 188.3 113.6 188.9 100.8 189.6 84 190.9 107.9 191.5 125.5 192.2 134.8 192.8 166 193.5 177.2 194.1 163.4 194.8 166.4 195.4 157.2 196.1 161.7 196.7 143.2 197.4 140.6 198 144 198.7 117.5 199.3 120.3 200 132.2 200.6 129.7 201.3 129.5 201.9 118.1 202.6 127 203.9 109.1 204.5 115.4 205.2 113.2 205.8 121.2 206.5 96.7 207.1 103.4 207.8 107.5 208.4 117.9 209.1 120.9 209.7 120.5 210.4 112.1 211 117.8 211.7 119.2 212.3 133.2 213 141.1 213.7 112.5 214.3 101.3 215 108.8 215.6 121.9 216.3 131.4 216.9 131.1 217.6 130.2 218.2 137.3 218.9 150 219.5 134.9 220.2 129.8 220.8 133.1 221.5 134.9 222.1 139.8 222.8 169.2 223.4 167.5 224.7 187.7 225.4 193.7 226 185.7 226.7 197.2 227.3 211.3 228.6 196.1 229.3 205.3 229.9 199.1 230.6 201.6 231.2 198 231.9 210.3 232.5 201.3 233.2 188.5 234.5 175.3 235.1 213.3 235.8 210.1 236.4 209.9 237.1 210.9 237.7 216.8 238.4 215.7 239 211 239.7 213.2 240.3 217.4 241 204.3 241.6 215.1 242.3 204.1 242.9 201.8 243.6 209.5 244.2 211.9 244.9 220.8 245.5 213.4 246.2 209.3 246.8 214.5 247.5 225.3 248.1 221.7 248.8 211.4 249.4 212 250.1 207.2 250.7 210.6 251.4 209.4 252 211.8 252.7 208.3 253.3 223.2 254 216.1 254.6 218 255.3 213.8 255.9 216.8 256.6 213 257.2 223.4 257.9 210.8 258.5 227.7 259.2 237.8 259.8 234.9 260.5 219.4 261.1 216.1 261.8 218.1 262.4 232.1 263.1 233.6 263.7 233.3 264.4 215.5 265 208.6 265.7 223.7 266.4 202.5 267 206 267.7 214.5 268.3 198.9 269 198.9 269.6 202.2 270.3 199.4 271.6 179.6 272.2 193.2 272.9 172.2 273.5 162.1 274.2 165.4 274.8 173.3 275.5 182.7 276.1 180.9 276.8 187 277.4 194.3 278.1 185.5 278.7 181.3 279.4 184.8 280 176.8 280.7 162.3 281.3 173 282 178.6 282.6 168.5 283.3 160.6 283.9 157.8 284.6 145.4 285.2 156 285.9 170.6 286.5 179 287.2 177.2 287.8 184.8 288.5 189.3 289.1 198.7 289.8 204.6 290.4 214.3 291.1 210 291.7 201.4 292.4 205.8 293 207.4 293.7 212.8 294.3 206.9 295 205.5 295.6 188.7 296.3 199.4 296.9 195.2 297.6 190.1 298.2 193.3 298.9 186.8 299.5 201 300.2 178.8 300.8 192 301.5 182.1 302.1 193.1 302.8 180.8 303.4 184.2 304.1 182.1 304.7 181 305.4 169.3 306 172.1 306.7 201.9 307.3 209.1 308 206.7 308.6 210.7 309.3 202.3 309.9 191.5 310.6 192.5 311.2 207.2 311.9 192.5 312.5 180.9 313.2 183.5 313.8 161.4 314.5 164.5 315.1 175.6 315.8 176.7 316.4 165.2 317.1 174.2 317.7 153.8 318.4 162.4 319 152.2 319.7 146.1 320.4 147.2 321 135.6 321.7 150.4 322.3 136 323 136.2 323.6 141.2 324.3 133.1 324.9 121.7 325.6 113.3 326.2 92.4 326.9 80.9 327.5 67.2 328.2 72.2 328.8 70.7 329.5 64.4 330.1 64.1 330.8 60.5 331.4 55.6 332.1 46.5 332.7 47 333.4 50.1 334.7 66.6 335.3 54.1 336 54.5 336.6 45.9 337.3 58.7 337.9 78 338.6 88.2 339.9 64.5 340.5 60.6 341.2 68.3 341.8 69.1 342.5 71.7 343.1 74.7 343.8 99.7 344.4 108 345.1 109.4 345.7 93.4 346.4 91.3 347 76.5 347.7 80 348.3 82 349 121.4 350.3 110 350.9 91.5 351.6 96 352.2 94.5 352.9 101.2 353.5 112.7 354.2 119.5 354.8 122.5 355.5 108.1 356.1 107.6 356.8 115.1 357.4 113.2 358.1 110.4 358.7 116.8 359.4 104.7 360 123.4 360.7 125.1 361.3 117.8 362 131"/>
  <g>
    <line class="st1" x1="37.3" y1="293.5" x2="37.3" y2="18.5"/>
    <polygon class="st6" points="40.2 20.5 37.3 9.7 34.4 20.5 40.2 20.5"/>
  </g>
  <g>
    <line class="st1" x1="4.8" y1="243.8" x2="386.2" y2="243.8"/>
    <polygon class="st6" points="384.2 246.7 395.1 243.8 384.2 240.9 384.2 246.7"/>
  </g>
  <polygon class="st3" points="17.9 21.5 17.9 21.5 17.9 21.5 17.9 21.5 17.9 21.5 17.9 21.5 17.9 21.5 17.9 21.5 17.9 21.5 17.9 21.5 17.9 21.5 17.9 21.5 17.9 21.5 17.9 21.5 17.9 21.5 17.9 21.5 17.9 21.5 17.9 21.5 17.9 21.5 17.9 21.5 17.9 21.5 17.9 21.5 17.9 21.5 17.9 21.5 17.9 21.5 17.9 21.5 17.9 21.5 17.9 21.5 17.9 21.5 17.9 21.5 17.9 21.5 17.9 21.5 17.9 21.5 17.9 21.5 17.9 21.5 17.9 21.5 17.9 21.5 17.9 21.5 17.9 21.5 17.9 21.5 17.9 21.5 17.9 21.5 17.9 21.5 17.9 21.5 17.9 21.5 17.9 21.5 17.9 21.5 17.9 21.5 17.9 21.5 17.9 21.5 17.9 21.5 17.9 21.5 17.9 21.5 17.9 21.5 17.9 21.5 17.9 21.5 17.9 21.5 17.9 21.5 17.9 21.5 17.9 21.5 17.9 21.5 17.9 21.5 17.9 21.5 17.9 21.5 17.9 21.5 17.9 21.5 17.9 21.5 17.9 21.5 17.9 21.5 17.9 21.5 17.9 21.5 17.9 21.5 17.9 21.5 17.9 21.5 17.9 21.5 17.9 21.5 17.9 21.5 17.9 21.5 17.9 21.5 17.9 21.5 17.9 21.5 17.9 21.5 17.9 21.5 17.9 21.5 17.9 21.5 17.9 21.5"/>
  <g class="st10">
    <path class="st3" d="M18.6,20.7h0Z"/>
    <path d="M23,10.5c0,0,0-.2-.3-.2s-.1,0-.4.4l-1.1,1.4c-.6-1.1-1.9-1.7-3.4-1.7-3,0-5.9,2.7-5.9,5.6s1.3,3,2.5,3.4l2.6.7c.9.2,2.2.6,2.2,2.5s-2,4.4-4.3,4.4-4.2-.5-4.2-3.5.1-1.1.1-1.3c0,0,0-.1,0-.2,0-.2-.2-.3-.3-.3s-.2,0-.2,0c0,0-1.4,5.5-1.4,5.6,0,.1.1.2.3.2s.1,0,.4-.4l1.2-1.4c1,1.4,2.6,1.7,4,1.7,3.2,0,6.1-3.2,6.1-6.1s-.8-2.5-1.2-2.8c-.5-.5-.9-.6-3-1.2-.5-.1-1.4-.4-1.6-.4-.6-.2-1.5-.9-1.5-2.2,0-1.9,1.9-4,4.2-4s3.4,1,3.4,3.7,0,1.2,0,1.3,0,.2.3.2.3,0,.4-.5l1.3-5.2"/>
    <path d="M26.5,24h1.7c.3,0,.5,0,.5-.4s-.2-.2-.5-.2h-1.6l.6-2.5c0,0,0-.2,0-.2,0-.3-.2-.5-.6-.5s-.7.3-.8.7c-.1.4.1-.4-.6,2.5h-1.7c-.3,0-.5,0-.5.4s.2.2.5.2h1.6l-1,4c-.1.4-.3,1-.3,1.2,0,1,.8,1.6,1.8,1.6,1.9,0,2.9-2.4,2.9-2.6s-.2-.2-.3-.2c-.2,0-.2,0-.4.3-.5,1.1-1.3,2-2.3,2s-.6-.2-.6-.8,0-.5.1-.7l1.2-4.8"/>
  </g>
  <polygon class="st3" points="390.4 262.3 390.4 262.3 390.4 262.3 390.4 262.3 390.4 262.3 390.4 262.3 390.4 262.3 390.4 262.3 390.4 262.3 390.4 262.3 390.4 262.3 390.4 262.3 390.4 262.3 390.4 262.3 390.4 262.3 390.4 262.3 390.4 262.3 390.4 262.3 390.4 262.3 390.4 262.3 390.4 262.3 390.4 262.3 390.4 262.3 390.4 262.3 390.4 262.3 390.4 262.3 390.4 262.3 390.4 262.3 390.4 262.3 390.4 262.3 390.4 262.3 390.4 262.3 390.4 262.3 390.4 262.3 390.4 262.3 390.4 262.3 390.4 262.3 390.4 262.3 390.4 262.3 390.4 262.3 390.4 262.3 390.4 262.3 390.4 262.3 390.4 262.3 390.4 262.3 390.4 262.3 390.4 262.3 390.4 262.3 390.4 262.3 390.4 262.3 390.4 262.3 390.4 262.3 390.4 262.3 390.4 262.3 390.4 262.3 390.4 262.3 390.4 262.3 390.4 262.3 390.4 262.3 390.4 262.3 390.4 262.3 390.4 262.3 390.4 262.3 390.4 262.3 390.4 262.3 390.4 262.3 390.4 262.3 390.4 262.3 390.4 262.3 390.4 262.3 390.4 262.3 390.4 262.3 390.4 262.3 390.4 262.3 390.4 262.3 390.4 262.3 390.4 262.3 390.4 262.3 390.4 262.3 390.4 262.3 390.4 262.3 390.4 262.3 390.4 262.3 390.4 262.3 390.4 262.3 390.4 262.3"/>
  <g class="st7">
    <path class="st3" d="M394.5,256.9h0Z"/>
    <path d="M394.9,254.7h2.2c.5,0,.7,0,.7-.5s-.2-.3-.7-.3h-2.1c.9-3.4,1-3.9,1-4,0-.4-.3-.6-.7-.6s-.7,0-1,.9l-.9,3.8h-2.2c-.5,0-.7,0-.7.5s.2.3.7.3h2.1c-1.7,6.8-1.8,7.2-1.8,7.6,0,1.3.9,2.2,2.2,2.2,2.4,0,3.8-3.5,3.8-3.7s-.2-.2-.3-.2c-.2,0-.2,0-.4.3-1,2.5-2.3,3.1-3.1,3.1s-.7-.3-.7-1.1,0-.7.1-1.1l1.8-7"/>
  </g>
  <g>
    <line class="st5" x1="208.3" y1="272.8" x2="208.3" y2="269.8"/>
    <line class="st2" x1="208.3" y1="263.8" x2="208.3" y2="15.7"/>
    <line class="st5" x1="208.3" y1="12.7" x2="208.3" y2="9.7"/>
  </g>
  <g>
    <line class="st5" x1="46.2" y1="48.5" x2="199.4" y2="48.5"/>
    <polygon points="48.2 51.4 37.3 48.5 48.2 45.6 48.2 51.4"/>
    <polygon points="197.4 51.4 208.3 48.5 197.4 45.6 197.4 51.4"/>
  </g>
  <g>
    <line class="st5" x1="217.1" y1="257" x2="353.1" y2="257"/>
    <polygon points="219.1 259.9 208.3 257 219.1 254.1 219.1 259.9"/>
    <polygon points="351.1 259.9 362 257 351.1 254.1 351.1 259.9"/>
  </g>
  <g>
    <line class="st5" x1="362" y1="272.8" x2="362" y2="269.8"/>
    <line class="st2" x1="362" y1="263.8" x2="362" y2="15.7"/>
    <line class="st5" x1="362" y1="12.7" x2="362" y2="9.7"/>
  </g>
  <polygon class="st3" points="122.1 32.5 122.1 32.5 122.1 32.5 122.1 32.5 122.1 32.5 122.1 32.5 122.1 32.5 122.1 32.5 122.1 32.5 122.1 32.5 122.1 32.5 122.1 32.5 122.1 32.5 122.1 32.5 122.1 32.5 122.1 32.5 122.1 32.5 122.1 32.5 122.1 32.5 122.1 32.5 122.1 32.5 122.1 32.5 122.1 32.5 122.1 32.5 122.1 32.5 122.1 32.5 122.1 32.5 122.1 32.5 122.1 32.5 122.1 32.5 122.1 32.5 122.1 32.5 122.1 32.5 122.1 32.5 122.1 32.5 122.1 32.5 122.1 32.5 122.1 32.5 122.1 32.5 122.1 32.5 122.1 32.5 122.1 32.5 122.1 32.5 122.1 32.5 122.1 32.5 122.1 32.5 122.1 32.5 122.1 32.5 122.1 32.5 122.1 32.5 122.1 32.5 122.1 32.5 122.1 32.5 122.1 32.5 122.1 32.5 122.1 32.5 122.1 32.5 122.1 32.5 122.1 32.5 122.1 32.5 122.1 32.5 122.1 32.5 122.1 32.5 122.1 32.5 122.1 32.5 122.1 32.5 122.1 32.5 122.1 32.5 122.1 32.5 122.1 32.5 122.1 32.5 122.1 32.5 122.1 32.5 122.1 32.5 122.1 32.5 122.1 32.5 122.1 32.5 122.1 32.5 122.1 32.5 122.1 32.5 122.1 32.5 122.1 32.5 122.1 32.5 122.1 32.5 122.1 32.5 122.1 32.5 122.1 32.5 122.1 32.5 122.1 32.5 122.1 32.5 122.1 32.5"/>
  <g class="st9">
    <path class="st3" d="M122.8,31.7h0Z"/>
    <path d="M98.5,36.3c2.7-6.7,3.2-10.8,3.6-13.7,1.6,0,7.7,0,7.7,5.2s-4.2,8.4-10,8.4h-1.3M98.4,37.6c5.6,0,13.4-4.2,13.4-10.8s-1-3.5-2.2-4.2c-2.1-1.3-4.2-1.3-6.5-1.3s-3.5,0-5.5.9c-3.2,1.4-3.6,3.4-3.6,3.6s0,.2.2.2c.4,0,.9-.3,1.1-.5.5-.3.6-.5.7-.9.3-1,1-1.8,4-1.9-.4,5-1.6,9.5-3.3,13.7-.9.3-1.5.9-1.5,1.1s0,.2.5.2h2.5Z"/>
    <path d="M115.3,34.5h2.6v-.6h-2.6v-3.1h-.6c0,1.5-.7,3.2-2.3,3.2v.5h1.6v4.5c0,1.9,1.4,2.3,2.4,2.3s1.9-1,1.9-2.3v-.9h-.6v.9c0,1.1-.5,1.8-1.2,1.8-1.2,0-1.2-1.4-1.2-1.7v-4.6"/>
    <path d="M122.7,37.4c0-1.4.7-3.1,2.3-3.1-.2.1-.3.3-.3.6,0,.6.4.8.8.8s.8-.3.8-.8-.5-1.1-1.3-1.1-1.8.5-2.3,1.8h0v-1.8l-2.4.2v.6c1.1,0,1.3.1,1.3.9v4.4c0,.7-.2.7-1.3.7v.6c0,0,1.2,0,1.9,0s1.5,0,2.2,0v-.6h-.3c-1.2,0-1.2-.2-1.2-.8v-2.5"/>
    <path d="M133.1,38.8c0,1.6-1.4,2.1-2.2,2.1s-1.7-.6-1.7-1.4.8-2.2,3.8-2.3v1.7M134.4,36.7c0-.9,0-1.5-.8-2.2-.7-.6-1.5-.8-2.5-.8-1.6,0-2.7.6-2.7,1.6s.4.8.8.8.8-.3.8-.8-.1-.6-.6-.8c.6-.4,1.6-.4,1.7-.4.9,0,2,.6,2,2v.5c-.9,0-2,0-3.3.5-1.5.6-2,1.5-2,2.2,0,1.4,1.7,1.9,2.9,1.9s2.1-.8,2.5-1.4c0,.7.5,1.3,1.3,1.3s1.7,0,1.7-1.6v-.9h-.6v.9c0,.2,0,1-.6,1s-.6-.8-.6-1v-2.9Z"/>
    <path d="M137.4,34v.6c1.1,0,1.2.1,1.2.9v4.4c0,.7-.2.7-1.3.7v.6s1.2,0,1.9,0,1.2,0,1.8,0v-.6c-1,0-1.1,0-1.1-.7v-6.1l-2.5.2M139.9,30.8c0-.5-.4-1-1-1s-1,.4-1,1,.5,1,1,1,1-.4,1-1Z"/>
    <path d="M150.5,36.1c0-1.5-.7-2.3-2.5-2.3s-2.3.8-2.7,1.6h0v-1.6l-2.5.2v.6c1.1,0,1.3.1,1.3.9v4.4c0,.7-.2.7-1.3.7v.6s1.2,0,1.9,0,1.8,0,1.9,0v-.6c-1.1,0-1.3,0-1.3-.7v-3c0-1.8,1.4-2.6,2.5-2.6s1.3.9,1.3,1.8v3.8c0,.7-.2.7-1.3.7v.6s1.2,0,1.9,0,1.8,0,1.9,0v-.6c-1.1,0-1.3,0-1.3-.7v-3.8"/>
  </g>
  <polygon class="st3" points="284.4 290.4 284.4 290.4 284.4 290.4 284.4 290.4 284.4 290.4 284.4 290.4 284.4 290.4 284.4 290.4 284.4 290.4 284.4 290.4 284.4 290.4 284.4 290.4 284.4 290.4 284.4 290.4 284.4 290.4 284.4 290.4 284.4 290.4 284.4 290.4 284.4 290.4 284.4 290.4 284.4 290.4 284.4 290.4 284.4 290.4 284.4 290.4 284.4 290.4 284.4 290.4 284.4 290.4 284.4 290.4 284.4 290.4 284.4 290.4 284.4 290.4 284.4 290.4 284.4 290.4 284.4 290.4 284.4 290.4 284.4 290.4 284.4 290.4 284.4 290.4 284.4 290.4 284.4 290.4 284.4 290.4 284.4 290.4 284.4 290.4 284.4 290.4 284.4 290.4 284.4 290.4 284.4 290.4 284.4 290.4 284.4 290.4 284.4 290.4 284.4 290.4 284.4 290.4 284.4 290.4 284.4 290.4 284.4 290.4 284.4 290.4 284.4 290.4 284.4 290.4 284.4 290.4 284.4 290.4 284.4 290.4 284.4 290.4 284.4 290.4 284.4 290.4 284.4 290.4 284.4 290.4 284.4 290.4 284.4 290.4 284.4 290.4 284.4 290.4 284.4 290.4 284.4 290.4 284.4 290.4 284.4 290.4 284.4 290.4 284.4 290.4 284.4 290.4 284.4 290.4 284.4 290.4 284.4 290.4 284.4 290.4 284.4 290.4 284.4 290.4 284.4 290.4 284.4 290.4 284.4 290.4 284.4 290.4 284.4 290.4 284.4 290.4 284.4 290.4 284.4 290.4"/>
  <g class="st8">
    <path class="st3" d="M285.1,276.6h0Z"/>
    <path d="M246.9,281.2c2.7-6.7,3.2-10.8,3.6-13.7,1.6,0,7.7,0,7.7,5.2s-4.2,8.4-10,8.4h-1.3M246.8,282.5c5.6,0,13.4-4.2,13.4-10.8s-1-3.5-2.2-4.2c-2-1.3-4.2-1.3-6.5-1.3s-3.5,0-5.5.9c-3.2,1.4-3.6,3.4-3.6,3.6s0,.2.2.2c.4,0,.9-.3,1.1-.5.5-.3.6-.5.7-.9.3-1,1-1.8,4-1.9-.4,5-1.6,9.5-3.3,13.7-.9.3-1.5.9-1.5,1.1s0,.2.5.2h2.5Z"/>
    <path d="M263.7,280.5c.5-.8,1.4-1.3,2.4-1.3s1.6.5,1.9,1c.3.5.5,1.1.5,2.3s0,1.6-.7,2.4c-.7.8-1.5.9-2,.9-1.3,0-2-1.1-2.2-1.4v-3.9M263.7,274.5l-2.5.2v.6c1.1,0,1.3.1,1.3,1v9.9h.6l.6-1c.6.8,1.6,1.2,2.5,1.2,2.2,0,4.1-1.7,4.1-3.8s-1.7-3.8-3.9-3.8-1.9.4-2.5,1v-5.3Z"/>
    <path d="M277.1,283.8c0,1.6-1.4,2.1-2.2,2.1s-1.7-.6-1.7-1.4.8-2.2,3.8-2.3v1.7M278.4,281.6c0-.9,0-1.5-.8-2.2-.7-.6-1.5-.8-2.5-.8-1.6,0-2.7.6-2.7,1.6s.4.8.8.8.8-.3.8-.8-.1-.6-.6-.8c.6-.4,1.6-.4,1.7-.4.9,0,2,.6,2,2v.5c-.9,0-2,0-3.3.5-1.5.6-2,1.5-2,2.2,0,1.4,1.7,1.9,2.9,1.9s2.1-.8,2.5-1.4c0,.7.5,1.3,1.3,1.3s1.7,0,1.7-1.6v-.9h-.6v.9c0,.2,0,1-.6,1s-.6-.8-.6-1v-2.9Z"/>
    <path d="M287,279.4c-.3.1-.5.4-.5.7s.3.8.8.8.8-.3.8-.8c0-1.5-2.3-1.5-2.8-1.5-2.5,0-4.1,1.9-4.1,3.9s1.8,3.8,4,3.8,3.1-2,3.1-2.2-.2-.2-.3-.2c-.2,0-.2,0-.3.3-.4,1-1.3,1.6-2.3,1.6s-2.7-.9-2.7-3.3,1-3.3,2.6-3.3,1,0,1.6.3"/>
    <path d="M293.9,281.6c2.1-1.6,2.6-2.1,3.8-2.1v-.6c-.4,0-.8,0-1.1,0-.7,0-1.3,0-2,0v.6c.2,0,.3.2.3.3,0,.3-.3.6-.5.7l-2.5,1.9v-8l-2.5.2v.6c1.1,0,1.3.1,1.3.9v8.6c0,.7-.2.7-1.3.7v.6c.6,0,1.2,0,1.9,0s1.2,0,1.9,0v-.6c-1.1,0-1.3,0-1.3-.7v-1.6l1.2-.9,1.8,2.3c.2.2.4.5.4.7s-.3.3-.5.3v.6c.2,0,1.4,0,1.9,0s1,0,1.5,0v-.6c-.6,0-1,0-1.5-.6l-2.7-3.3"/>
    <path d="M301.8,279.5h2.6v-.6h-2.6v-3.1h-.6c0,1.5-.7,3.2-2.3,3.2v.5h1.6v4.5c0,1.9,1.4,2.3,2.4,2.3s1.9-1,1.9-2.3v-.9h-.6v.9c0,1.1-.5,1.8-1.2,1.8-1.2,0-1.2-1.4-1.2-1.7v-4.6"/>
    <path d="M308.1,281.9c.2-2.4,1.7-2.8,2.3-2.8,2.1,0,2.1,2.3,2.2,2.8h-4.5M313.3,282.3c.4,0,.5,0,.5-.4,0-1.5-.8-3.3-3.3-3.3s-3.9,1.7-3.9,3.8,1.9,3.9,4.1,3.9,3.1-1.8,3.1-2.2,0-.2-.3-.2-.3.1-.3.3c-.5,1.4-1.8,1.6-2.4,1.6s-1.5-.4-2.1-1c-.6-.8-.6-1.8-.6-2.5h5.2Z"/>
    <path d="M320.8,279.1c0-.3,0-.4-.2-.4s-.1,0-.3.2c0,0-.2.2-.3.3-.5-.4-1.1-.5-1.8-.5-2.4,0-3,1.3-3,2.1s.2,1,.6,1.3c.6.6,1.3.7,2.3.8.8.2,2.2.4,2.2,1.5s-.5,1.4-2.1,1.4-2.2-1.1-2.5-2.2c0-.2,0-.3-.3-.3s-.3.1-.3.5v2.1c0,.3,0,.4.2.4s.5-.4.8-.7c.7.7,1.6.7,2.1.7,2.2,0,3-1.2,3-2.4s-.3-1.1-.7-1.5c-.6-.6-1.4-.7-2-.8-1.3-.2-2.4-.4-2.4-1.3s.5-1.2,2.1-1.2,2,1.4,2.1,1.8c0,.2.2.2.3.2.3,0,.3-.1.3-.4v-1.6"/>
    <path d="M325.4,279.5h2.6v-.6h-2.6v-3.1h-.6c0,1.5-.7,3.2-2.3,3.2v.5h1.6v4.5c0,1.9,1.4,2.3,2.4,2.3s1.9-1,1.9-2.3v-.9h-.6v.9c0,1.1-.5,1.8-1.2,1.8-1.2,0-1.2-1.4-1.2-1.7v-4.6"/>
  </g>
</svg>