<?xml version="1.0" encoding="UTF-8"?>
<svg id="Layer_1" xmlns="http://www.w3.org/2000/svg" xmlns:xlink="http://www.w3.org/1999/xlink" version="1.1" viewBox="0 0 549.8 403.3">
  <!-- Generator: Adobe Illustrator 29.0.0, SVG Export Plug-In . SVG Version: 2.1.0 Build 186)  -->
  <defs>
    <style>
      .st0, .st1, .st2, .st3, .st4, .st5, .st6, .st7, .st8 {
        fill: none;
      }

      .st9 {
        fill: #fbdfb4;
      }

      .st9, .st10, .st1, .st2, .st3, .st4, .st11, .st12, .st7, .st13, .st8 {
        stroke: #1d1d1b;
      }

      .st9, .st10, .st1, .st3, .st4, .st11, .st12, .st6, .st7, .st13 {
        stroke-linecap: square;
      }

      .st9, .st10, .st1, .st3, .st4, .st11, .st12, .st6, .st13, .st8 {
        stroke-linejoin: round;
      }

      .st9, .st10, .st2, .st4, .st11, .st12, .st6, .st7, .st13 {
        stroke-width: .5px;
      }

      .st10 {
        fill: #e2eed9;
      }

      .st2, .st5, .st7 {
        stroke-miterlimit: 10;
      }

      .st3 {
        stroke-width: .8px;
      }

      .st5 {
        opacity: 0;
        stroke: #000;
      }

      .st14, .st15, .st16, .st17, .st18 {
        fill: #1d1d1b;
      }

      .st11 {
        fill: #f6f6f6;
      }

      .st19, .st12 {
        fill: #fff;
      }

      .st6 {
        stroke: #312783;
      }

      .st15 {
        font-size: 25px;
      }

      .st15, .st16, .st17, .st18 {
        font-family: LiberationMono, 'Liberation Mono';
      }

      .st16 {
        font-size: 18px;
      }

      .st17 {
        font-size: 14px;
      }

      .st18 {
        font-size: 15px;
      }

      .st13 {
        fill: #dadada;
      }

      .st20 {
        clip-path: url(#clippath);
      }
    </style>
    <clipPath id="clippath">
      <rect class="st0" x="237.4" y="350.1" width="78" height="25"/>
    </clipPath>
  </defs>
  <rect class="st9" x="207.4" y="306.7" width="138.1" height="84.1"/>
  <rect class="st10" x="87.1" y="12.6" width="372.3" height="226.8"/>
  <g>
    <g>
      <rect class="st19" x="124.2" y="176.8" width="52.6" height="31.5" transform="translate(-90.7 153.4) rotate(-42.8)"/>
      <rect class="st19" x="227.9" y="70.1" width="52.6" height="31.5" transform="translate(9.3 195.4) rotate(-42.8)"/>
      <g>
        <rect class="st13" x="120.3" y="56.1" width="142.5" height="142.5"/>
        <polyline class="st6" points="251.9 88.5 251.7 89.4 251.4 89 251.2 92.5 250.9 93.3 250.7 90.8 250.4 92.9 250.2 99.8 250 104.9 249.7 101.6 249.5 95.4 249.2 92.4 249 92.9 248.8 81.3 248.5 80.5 248.3 74.4 248 70.9 247.8 68.4 247.5 67 247.3 69.4 247.1 74.9 246.8 74.5 246.6 81.7 246.3 78.6 246.1 80.7 245.8 85.5 245.6 86.3 245.4 82.7 245.1 78.3 244.9 76.2 244.6 77.6 244.4 72.7 244.2 71.9 243.9 71.3 243.7 74.3 243.4 75.7 243.2 77.7 242.9 74.7 242.7 74.3 242.5 78.5 242.2 86.4 242 80.2 241.5 95.3 241.3 99.5 241 101.1 240.8 99.8 240.5 107.5 240 127.2 239.8 134.1 239.6 136.2 239.3 130.3 239.1 130.5 238.8 134.1 238.6 127.8 238.1 132.5 237.9 136.3 237.6 130.6 237.4 127.4 237.1 125.5 236.9 119.8 236.7 128.9 236.4 126.6 236.2 128.5 235.9 127.5 235.4 142.8 235.2 146.3 235 135.3 234.7 135.8 234.5 139.6 234.2 144.9 234 142 233.8 151.6 233.5 145.1 233.3 142 233 147 232.8 147.5 232.5 158 232.3 159.2 232.1 156.2 231.8 154.5 231.6 149.2 231.3 143 230.8 149.7 230.6 156.5 230.4 152.9 230.1 161.8 229.9 160.6 229.6 168.9 229.4 166.9 229.2 163.4 228.9 164.9 228.7 170.5 228.4 171.5 228.2 168.8 227.7 155.3 227.5 158.1 227.2 163.4 227 162.9 226.7 157.6 226.5 162.3 226.3 156.1 226 152.7 225.8 156.1 225.5 144.9 225.3 147.1 225 144.4 224.8 145.2 224.6 145.1 224.3 146.4 224.1 150.2 223.8 146.6 223.6 154.1 223.1 162.6 222.9 168.8 222.4 177.6 222.1 178.2 221.9 171.2 221.7 170.8 221.4 167.1 221.2 160.1 220.9 161.7 220.7 159 220.2 149 220 150.6 219.7 152.7 219.5 159.7 219.2 159.9 219 165.4 218.7 172.8 218.5 179 218.3 167.2 218 173.7 217.8 175.7 217.3 180.2 216.8 184.3 216.6 182.7 216.3 173.3 216.1 173 215.8 169.2 215.6 174.9 215.4 173.7 215.1 174.4 214.9 170.3 214.6 168 214.4 168.2 214.2 160.8 213.9 162.6 213.7 162.3 213.4 156.6 213.2 144.6 212.9 147.5 212.7 146.2 212.5 143.7 212.2 142.8 212 152.3 211.7 152.3 211.5 153 211.2 145.7 211 154.3 210.5 165 210.3 165.5 210 170.4 209.8 172.5 209.6 175.9 209.3 175.4 209.1 168.1 208.8 173.6 208.6 164 208.3 163.1 208.1 162.3 207.9 157.2 207.6 160.6 207.4 159.8 207.1 157.8 206.9 160.8 206.7 158.6 206.4 165.9 206.2 168 205.9 165.8 205.7 156.1 205.4 149.7 205.2 155.5 205 155.5 204.7 154.3 204.5 163 204.2 156.7 204 153.9 203.7 151.8 203.5 155 203 149 202.8 141.1 202.3 149.4 202.1 147.3 201.8 148.4 201.6 142 201.3 139.9 201.1 147.2 200.8 148.1 200.6 160.1 200.4 156.4 200.1 159.6 199.9 158.8 199.6 162 199.4 162.2 199.2 159.6 198.9 155.4 198.7 171.3 198.4 171.2 198.2 161.2 197.9 158.1 197.7 161.8 197.5 159.5 197.2 166.7 197 172.1 196.7 171.5 196.5 169.4 196.2 164.5 196 161.2 195.8 154 195.5 160.4 195.3 168.7 194.8 156.8 194.6 148 194.3 143.4 194.1 127.8 193.8 122.2 193.6 129.1 193.3 127.6 193.1 132.2 192.9 130 192.6 139.2 192.4 140.5 192.1 138.8 191.9 152 191.6 150.6 191.4 144.7 191.2 146 190.9 146 190.7 151.7 190.4 147.3 190 156.2 189.7 153.1 189.5 154.2 189.2 150.2 189 162.4 188.7 159.1 188.5 157 188.3 151.8 188 150.3 187.8 150.5 187.5 154.7 187.3 151.9 187.1 151.2 186.8 144.2 186.6 140.2 186.3 154.5 186.1 160.1 185.8 156.4 185.6 149.8 185.4 145.1 185.1 145.2 184.9 145.7 184.6 142.1 184.4 135.8 184.1 143.3 183.9 145.9 183.7 144.2 183.4 143.4 183.2 140.9 182.9 126.2 182.7 127 182.2 117 182 114 181.7 118 181.5 112.3 181.2 105.2 180.8 112.8 180.5 108.2 180.3 111.3 180 110.1 179.8 111.9 179.6 105.7 179.3 110.2 179.1 116.6 178.6 123.2 178.3 104.2 178.1 105.8 177.9 105.9 177.6 105.4 177.4 102.5 177.1 103 176.9 105.4 176.6 104.3 176.4 102.2 176.2 108.7 175.9 103.3 175.7 108.8 175.4 110 175.2 106.1 175 104.9 174.7 100.5 174.5 104.2 174.2 106.2 174 103.6 173.7 98.2 173.5 100 173.3 105.2 173 104.8 172.8 107.2 172.5 105.6 172.3 106.2 172.1 104.9 171.8 106.7 171.6 99.3 171.3 102.8 171.1 101.9 170.8 104 170.6 102.5 170.4 104.4 170.1 99.2 169.9 105.5 169.6 97 169.4 92 169.1 93.5 168.9 101.2 168.7 102.8 168.4 101.8 168.2 94.8 167.9 94.1 167.7 94.3 167.5 103.1 167.2 106.6 167 99 166.7 109.6 166.5 107.8 166.2 103.6 166 111.4 165.8 111.4 165.5 109.8 165.3 111.1 164.8 121 164.5 114.3 164.3 124.7 164.1 129.8 163.8 128.1 163.6 124.2 163.3 119.5 163.1 120.4 162.9 117.3 162.6 113.7 162.4 118.1 162.1 120.2 161.9 118.4 161.6 122.4 161.4 129.7 161.2 124.3 160.9 121.5 160.7 126.6 160.4 130.5 160.2 131.9 160 138.1 159.7 132.8 159.5 125.5 159.2 121.4 159 122.2 158.7 118.4 158.5 116.2 158.3 111.5 158 108.6 157.8 103.7 157.5 105.8 157.3 110.1 157 107.9 156.8 107.1 156.6 104.4 156.3 107.4 156.1 108.1 155.8 116.5 155.6 111.2 155.4 113.3 155.1 115.8 154.9 114.2 154.6 117.4 154.4 110.4 154.1 121.4 153.9 114.8 153.7 119.8 153.4 114.3 153.2 120.4 152.9 118.7 152.7 119.8 152.5 120.3 152.2 126.2 152 124.8 151.7 109.9 151.5 106.3 151.2 107.5 151 105.5 150.8 109.7 150.5 115.1 150.3 114.6 150 107.3 149.8 114.6 149.5 120.4 149.3 119.1 149.1 130.1 148.8 128.6 148.6 123 148.3 122.5 148.1 128.2 147.9 123.7 147.6 133.9 147.4 129.6 147.1 134.7 146.9 137.8 146.6 137.2 146.4 143 146.2 135.6 145.9 142.8 145.7 142.7 145.4 140.2 145.2 144.3 145 149.9 144.7 154.1 144.5 164.5 144.2 170.3 144 177.1 143.7 174.6 143.5 175.4 143.3 178.5 143 178.7 142.8 180.5 142.5 182.9 142.3 187.5 142 187.2 141.8 185.7 141.3 177.4 141.1 183.7 140.8 183.5 140.6 187.7 140.4 181.4 140.1 171.8 139.9 166.7 139.4 178.5 139.1 180.4 138.9 176.6 138.7 176.2 138.4 174.9 138.2 173.4 137.9 160.9 137.7 156.8 137.4 156.1 137.2 164 137 165.1 136.7 172.5 136.5 170.8 136.2 169.7 136 150.1 135.5 155.8 135.3 165 135 162.8 134.8 163.5 134.5 160.2 134.3 154.4 134.1 151.1 133.8 149.5 133.6 156.7 133.3 157 133.1 153.2 132.9 154.2 132.6 155.5 132.4 152.4 132.1 158.4 131.9 149.1 131.6 148.2 131.4 151.9 131.2 145.3"/>
      </g>
      <g>
        <rect class="st12" x="142" y="79.6" width="142.5" height="142.5"/>
        <polyline class="st6" points="152.9 189.7 153.1 188.8 153.4 189.3 153.6 185.7 153.9 184.9 154.1 187.4 154.3 185.3 154.6 178.4 154.8 173.3 155.1 176.7 155.3 182.9 155.5 185.8 155.8 185.3 156 196.9 156.3 197.8 156.5 203.9 156.8 207.4 157 209.9 157.2 211.2 157.5 208.9 157.7 203.3 158 203.7 158.2 196.5 158.4 199.6 158.7 197.6 158.9 192.7 159.2 192 159.4 195.5 159.7 200 159.9 202 160.1 200.7 160.4 205.6 160.6 206.4 160.9 206.9 161.1 203.9 161.4 202.6 161.6 200.5 161.8 203.6 162.1 204 162.3 199.7 162.6 191.9 162.8 198 163.3 182.9 163.5 178.7 163.8 177.1 164 178.4 164.3 170.8 164.7 151.1 165 144.1 165.2 142 165.5 147.9 165.7 147.7 165.9 144.1 166.2 150.4 166.7 145.7 166.9 141.9 167.2 147.7 167.4 150.8 167.6 152.8 167.9 158.5 168.1 149.4 168.4 151.6 168.6 149.7 168.9 150.8 169.3 135.4 169.6 132 169.8 142.9 170.1 142.4 170.3 138.7 170.5 133.3 170.8 136.2 171 126.7 171.3 133.1 171.5 136.3 171.8 131.2 172 130.7 172.2 120.3 172.5 119.1 172.7 122 173 123.7 173.2 129 173.4 135.3 173.9 128.6 174.2 121.7 174.4 125.3 174.7 116.4 174.9 117.7 175.1 109.4 175.4 111.3 175.6 114.8 175.9 113.3 176.1 107.8 176.4 106.7 176.6 109.4 177.1 122.9 177.3 120.1 177.6 114.8 177.8 115.4 178 120.6 178.3 115.9 178.5 122.2 178.8 125.5 179 122.1 179.3 133.3 179.5 131.1 179.7 133.8 180 133 180.2 133.1 180.5 131.9 180.7 128.1 181 131.7 181.2 124.2 181.7 115.7 181.9 109.5 182.4 100.6 182.6 100 182.9 107 183.1 107.5 183.4 111.1 183.6 118.1 183.9 116.5 184.1 119.2 184.6 129.2 184.8 127.6 185.1 125.5 185.3 118.5 185.5 118.4 185.8 112.8 186 105.4 186.3 99.3 186.5 111.1 186.8 104.6 187 102.6 187.5 98 188 93.9 188.2 95.5 188.5 104.9 188.7 105.2 188.9 109.1 189.2 103.3 189.4 104.5 189.7 103.9 189.9 107.9 190.1 110.3 190.4 110.1 190.6 117.4 190.9 115.6 191.1 115.9 191.4 121.7 191.6 133.7 191.8 130.8 192.1 132 192.3 134.5 192.6 135.4 192.8 125.9 193 125.9 193.3 125.2 193.5 132.6 193.8 123.9 194.3 113.3 194.5 112.8 194.7 107.9 195 105.7 195.2 102.3 195.5 102.8 195.7 110.1 196 104.6 196.2 114.2 196.4 115.2 196.7 116 196.9 121 197.2 117.7 197.4 118.4 197.6 120.4 197.9 117.5 198.1 119.7 198.4 112.3 198.6 110.3 198.9 112.4 199.1 122.1 199.3 128.5 199.6 122.7 199.8 122.7 200.1 123.9 200.3 115.3 200.6 121.6 200.8 124.3 201 126.4 201.3 123.2 201.8 129.2 202 137.1 202.5 128.8 202.7 131 203 129.9 203.2 136.2 203.5 138.4 203.7 131.1 203.9 130.1 204.2 118.1 204.4 121.9 204.7 118.6 204.9 119.4 205.1 116.2 205.4 116 205.6 118.6 205.9 122.8 206.1 106.9 206.4 107.1 206.6 117.1 206.8 120.1 207.1 116.4 207.3 118.7 207.6 111.5 207.8 106.2 208.1 106.7 208.3 108.8 208.5 113.7 208.8 117 209 124.3 209.3 117.9 209.5 109.5 210 121.4 210.2 130.2 210.5 134.8 210.7 150.4 211 156 211.2 149.1 211.4 150.6 211.7 146 211.9 148.3 212.2 139 212.4 137.8 212.6 139.5 212.9 126.2 213.1 127.6 213.4 133.6 213.6 132.3 213.9 132.2 214.1 126.5 214.3 131 214.8 122 215.1 125.2 215.3 124.1 215.6 128.1 215.8 115.8 216 119.2 216.3 121.2 216.5 126.4 216.8 127.9 217 127.7 217.2 123.5 217.5 126.4 217.7 127.1 218 134 218.2 138 218.5 123.7 218.7 118.1 218.9 121.9 219.2 128.4 219.4 133.1 219.7 133 219.9 132.6 220.1 136.1 220.4 142.4 220.6 134.9 220.9 132.4 221.1 134 221.4 134.9 221.6 137.3 221.8 152 222.1 151.2 222.6 161.2 222.8 164.3 223.1 160.3 223.3 166 223.5 173 224 165.4 224.3 170 224.5 166.9 224.7 168.2 225 166.4 225.2 172.5 225.5 168 225.7 161.7 226.2 155 226.4 174 226.7 172.4 226.9 172.3 227.2 172.8 227.4 175.8 227.7 175.2 227.9 172.9 228.1 174 228.4 176.1 228.6 169.5 228.9 174.9 229.1 169.4 229.3 168.3 229.6 172.1 229.8 173.3 230.1 177.8 230.3 174.1 230.6 172 230.8 174.6 231 180 231.3 178.2 231.5 173.1 231.8 173.4 232 171 232.2 172.7 232.5 172.1 232.7 173.3 233 171.5 233.2 179 233.5 175.4 233.7 176.4 233.9 174.3 234.2 175.8 234.4 173.9 234.7 179.1 234.9 172.8 235.2 181.2 235.4 186.2 235.6 184.8 235.9 177.1 236.1 175.4 236.4 176.4 236.6 183.4 236.8 184.1 237.1 184 237.3 175.1 237.6 171.7 237.8 179.2 238.1 168.6 238.3 170.4 238.5 174.6 238.8 166.9 239 166.9 239.3 168.5 239.5 167.1 240 157.2 240.2 164 240.5 153.5 240.7 148.4 241 150.1 241.2 154 241.4 158.7 241.7 157.8 241.9 160.9 242.2 164.5 242.4 160.1 242.7 158 242.9 159.8 243.1 155.8 243.4 148.6 243.6 153.9 243.9 156.7 244.1 151.7 244.3 147.7 244.6 146.3 244.8 140.1 245.1 145.4 245.3 152.7 245.6 156.9 245.8 156 246 159.8 246.3 162 246.5 166.8 246.8 169.7 247 174.5 247.2 172.4 247.5 168.1 247.7 170.3 248 171.1 248.2 173.8 248.5 170.8 248.7 170.1 248.9 161.7 249.2 167.1 249.4 165 249.7 162.4 249.9 164 250.2 160.8 250.4 167.9 250.6 156.8 250.9 163.4 251.1 158.5 251.4 163.9 251.6 157.8 251.8 159.5 252.1 158.4 252.3 157.9 252.6 152.1 252.8 153.4 253.1 168.3 253.3 171.9 253.5 170.7 253.8 172.7 254 168.6 254.3 163.1 254.5 163.6 254.8 171 255 163.6 255.2 157.9 255.5 159.1 255.7 148.1 256 149.7 256.2 155.2 256.4 155.7 256.7 150 256.9 154.5 257.2 144.3 257.4 148.6 257.7 143.5 257.9 140.5 258.1 141 258.4 135.3 258.6 142.6 258.9 135.5 259.1 135.5 259.3 138 259.6 134 259.8 128.3 260.1 124.1 260.3 113.7 260.6 107.9 260.8 101.1 261 103.6 261.3 102.8 261.5 99.7 261.8 99.5 262 97.7 262.3 95.3 262.5 90.8 262.7 91 263 92.6 263.5 100.8 263.7 94.6 263.9 94.8 264.2 90.5 264.4 96.8 264.7 106.5 264.9 111.6 265.4 99.8 265.6 97.8 265.9 101.7 266.1 102.1 266.4 103.3 266.6 104.8 266.8 117.3 267.1 121.5 267.3 122.2 267.6 114.2 267.8 113.1 268.1 105.7 268.3 107.5 268.5 108.5 268.8 128.1 269.3 122.5 269.5 113.2 269.8 115.5 270 114.7 270.2 118.1 270.5 123.8 270.7 127.2 271 128.7 271.2 121.5 271.4 121.3 271.7 125 271.9 124.1 272.2 122.7 272.4 125.9 272.7 119.8 272.9 129.2 273.1 130 273.4 126.4 273.6 132.9"/>
      </g>
      <line class="st4" x1="284.5" y1="79.6" x2="262.8" y2="56.1"/>
      <line class="st4" x1="120.5" y1="56.4" x2="141.9" y2="79.5"/>
      <line class="st4" x1="120.3" y1="198.6" x2="142" y2="222.1"/>
    </g>
    <g>
      <rect class="st11" x="324.9" y="115.4" width="101.3" height="58"/>
      <text class="st16" transform="translate(334.4 131)"><tspan x="0" y="0">Account</tspan></text>
      <text class="st18" transform="translate(341.9 147.5)"><tspan x="0" y="0">margin</tspan></text>
      <text class="st18" transform="translate(341.9 166.6)"><tspan x="0" y="0">positions</tspan></text>
      <line class="st2" x1="330.4" y1="124.8" x2="330.4" y2="163.7"/>
      <line class="st7" x1="340.9" y1="163.7" x2="330.4" y2="163.7"/>
      <line class="st7" x1="340.8" y1="143.8" x2="330.3" y2="143.8"/>
    </g>
    <line class="st3" x1="375.6" y1="115.4" x2="375.6" y2="94.8"/>
    <g>
      <line class="st3" x1="375.6" y1="94.8" x2="291.1" y2="94.8"/>
      <polygon class="st14" points="292.6 92.6 284.5 94.8 292.6 96.9 292.6 92.6"/>
    </g>
    <g>
      <line class="st3" x1="375.6" y1="194.1" x2="375.6" y2="180"/>
      <polygon class="st14" points="377.7 181.5 375.6 173.4 373.4 181.5 377.7 181.5"/>
    </g>
    <line class="st3" x1="284.9" y1="194.1" x2="375.6" y2="194.1"/>
  </g>
  <text class="st15" transform="translate(238.9 340.9)"><tspan x="0" y="0">Agent</tspan></text>
  <polygon class="st5" points="276.4 363.2 276.4 363.2 276.4 363.2 276.4 363.2 276.4 363.2 276.4 363.2 276.4 363.2 276.4 363.2 276.4 363.2 276.4 363.2 276.4 363.2 276.4 363.2 276.4 363.2 276.4 363.2 276.4 363.2 276.4 363.2 276.4 363.2 276.4 363.2 276.4 363.2 276.4 363.2 276.4 363.2 276.4 363.2 276.4 363.2 276.4 363.2 276.4 363.2 276.4 363.2 276.4 363.2 276.4 363.2 276.4 363.2 276.4 363.2 276.4 363.2 276.4 363.2 276.4 363.2 276.4 363.2 276.4 363.2 276.4 363.2 276.4 363.2 276.4 363.2 276.4 363.2 276.4 363.2 276.4 363.2 276.4 363.2 276.4 363.2 276.4 363.2 276.4 363.2 276.4 363.2 276.4 363.2 276.4 363.2 276.4 363.2 276.4 363.2 276.4 363.2 276.4 363.2 276.4 363.2 276.4 363.2 276.4 363.2 276.4 363.2 276.4 363.2 276.4 363.2 276.4 363.2 276.4 363.2 276.4 363.2 276.4 363.2 276.4 363.2 276.4 363.2 276.4 363.2 276.4 363.2 276.4 363.2 276.4 363.2 276.4 363.2 276.4 363.2 276.4 363.2 276.4 363.2 276.4 363.2 276.4 363.2 276.4 363.2 276.4 363.2 276.4 363.2 276.4 363.2 276.4 363.2 276.4 363.2 276.4 363.2 276.4 363.2 276.4 363.2 276.4 363.2 276.4 363.2 276.4 363.2 276.4 363.2 276.4 363.2 276.4 363.2"/>
  <g class="st20">
    <path class="st5" d="M276.4,362.6h0Z"/>
    <path d="M243.4,359.6h2.7c-.8,3.5-1,4.6-1,6.2s0,1,.2,1.8c.2,1,.5,1.2.9,1.2s1-.4,1-.9,0-.2-.1-.5c-.7-1.7-.7-3.3-.7-3.9,0-1.3.2-2.6.4-3.8h2.7c.3,0,1.2,0,1.2-.8s-.5-.6-1-.6h-8c-.5,0-1.4,0-2.5,1.1-.8.9-1.5,2-1.5,2.1s0,.2.3.2.2,0,.4-.3c1.2-1.8,2.6-1.8,3-1.8h1.4c-.8,2.9-2.1,5.8-3.1,7.9-.2.4-.2.4-.2.6,0,.5.4.6.7.6.7,0,.9-.7,1.2-1.5.3-1.1.3-1.1.6-2.3l1.3-5.3"/>
    <path d="M259.4,374.2c0,0,0-.1-.4-.5-3-3-3.7-7.5-3.7-11.2s.9-8.3,3.8-11.3c.3-.3.3-.3.3-.4,0-.2,0-.2-.2-.2-.2,0-2.4,1.6-3.8,4.6-1.2,2.6-1.5,5.3-1.5,7.3s.3,4.7,1.6,7.4c1.4,2.9,3.5,4.5,3.7,4.5s.2,0,.2-.2"/>
    <path d="M268.2,365.7c-.1.4-.1.5-.5.9-1,1.3-2,1.7-2.7,1.7-1.2,0-1.5-1.3-1.5-2.2s.8-4.1,1.3-5.2c.7-1.4,1.8-2.3,2.8-2.3,1.5,0,1.9,2,1.9,2.1s0,.3,0,.4l-1.2,4.7M269.7,359.5c-.4-.9-1.1-1.5-2.2-1.5-2.8,0-5.7,3.5-5.7,7s1.3,3.8,3.2,3.8,1.7,0,3.1-1.8c.2,1,1,1.8,2.2,1.8s1.4-.5,1.8-1.3c.4-.9.7-2.3.7-2.4,0-.2-.2-.2-.3-.2-.2,0-.3,0-.3.4-.4,1.6-.8,3-1.8,3s-.7-.6-.7-1.1,0-.7.3-1.8c.3-1,.3-1.2.5-2.1l.9-3.3c.2-.7.2-.7.2-.8,0-.4-.3-.6-.7-.6s-.9.5-1,1Z"/>
    <path d="M277.7,365.5h1.7c.3,0,.5,0,.5-.4s-.2-.2-.5-.2h-1.6l.6-2.5c0,0,0-.2,0-.2,0-.3-.2-.5-.6-.5s-.7.3-.8.7c-.1.4.1-.4-.6,2.5h-1.7c-.3,0-.5,0-.5.4s.2.2.5.2h1.6l-1,4c-.1.4-.3,1-.3,1.2,0,1,.8,1.6,1.8,1.6,1.9,0,2.9-2.4,2.9-2.6s-.2-.2-.3-.2c-.2,0-.2,0-.4.3-.5,1.1-1.3,2-2.3,2s-.6-.2-.6-.8,0-.5,0-.7l1.2-4.8"/>
    <path d="M285.7,351.5c0-.4,0-.9-.5-.9s-.5.4-.5.9v22.1c0,.4,0,.9.5.9s.5-.4.5-.9v-22.1"/>
    <path d="M297.9,359.6c-.7,0-1.1.5-1.1,1.1s.2.7.7.7,1.1-.4,1.1-1.3-1-2.1-2.8-2.1c-3.1,0-4,2.4-4,3.5,0,1.9,1.8,2.2,2.5,2.4,1.2.2,2.5.5,2.5,1.8s-.5,2.6-3.4,2.6-2.2,0-2.7-1.3c.9.1,1.5-.6,1.5-1.3s-.4-.8-.9-.8-1.3.5-1.3,1.6,1.4,2.3,3.4,2.3c3.9,0,4.8-2.9,4.8-4s-.5-1.5-.7-1.7c-.6-.7-1.3-.8-2.4-1-.9-.2-1.8-.4-1.8-1.4s.6-2.1,2.7-2.1,1.8.2,2.1,1.1"/>
    <path d="M303.9,365.5h1.7c.3,0,.5,0,.5-.4s-.2-.2-.5-.2h-1.6l.6-2.5c0,0,0-.2,0-.2,0-.3-.2-.5-.6-.5s-.7.3-.8.7c-.1.4.1-.4-.6,2.5h-1.7c-.3,0-.5,0-.5.4s.2.2.5.2h1.6l-1,4c-.1.4-.3,1-.3,1.2,0,1,.8,1.6,1.8,1.6,1.9,0,2.9-2.4,2.9-2.6s-.2-.2-.3-.2c-.2,0-.2,0-.4.3-.5,1.1-1.3,2-2.3,2s-.6-.2-.6-.8,0-.5,0-.7l1.2-4.8"/>
    <path d="M315.1,362.5c0-1.9-.3-4.7-1.6-7.4-1.4-2.9-3.5-4.5-3.7-4.5s-.2,0-.2.2,0,.1.5.5c2.3,2.4,3.7,6.1,3.7,11.1s-.9,8.3-3.8,11.3c-.3.3-.3.3-.3.4,0,.1,0,.2.2.2.2,0,2.4-1.6,3.8-4.6,1.2-2.6,1.5-5.3,1.5-7.3"/>
  </g>
  <text class="st15" transform="translate(220.8 38.5)"><tspan x="0" y="0">gym.Env</tspan></text>
  <g>
    <line class="st1" x1="77.8" y1="126.4" x2="35.8" y2="126.4"/>
    <polygon class="st14" points="75.9 123.5 86.7 126.4 75.9 129.3 75.9 123.5"/>
  </g>
  <line class="st1" x1="510.8" y1="126.4" x2="459.8" y2="126.4"/>
  <line class="st1" x1="35.8" y1="126.4" x2="35.8" y2="350.1"/>
  <line class="st1" x1="510.8" y1="126.4" x2="510.8" y2="348.7"/>
  <line class="st8" x1="207.4" y1="350.1" x2="35.8" y2="350.1"/>
  <g>
    <line class="st8" x1="510.8" y1="348.7" x2="354.4" y2="348.7"/>
    <polygon class="st14" points="356.3 345.8 345.5 348.7 356.3 351.6 356.3 345.8"/>
  </g>
  <text class="st17" transform="translate(519.8 138.6) rotate(90)"><tspan x="0" y="0">[prices,position,margin]</tspan></text>
  <text class="st17" transform="translate(24.8 289.5) rotate(-90)"><tspan x="0" y="0">[positions]</tspan></text>
</svg>